<!-- Generator: Adobe Illustrator 19.2.0, SVG Export Plug-In  -->
<svg version="1.1"
	 xmlns="http://www.w3.org/2000/svg" xmlns:xlink="http://www.w3.org/1999/xlink" xmlns:a="http://ns.adobe.com/AdobeSVGViewerExtensions/3.0/"
	 x="0px" y="0px" width="62.787px" height="13.079px" viewBox="0 0 62.787 13.079"
	 style="enable-background:new 0 0 62.787 13.079;" xml:space="preserve">
<style type="text/css">
	.st0{fill:#1D71B8;}
	.st1{fill:#727272;}
</style>
<defs>
</defs>
<g>
	<path class="st0" d="M2.435,10.079c-0.912,0-1.835-0.06-2.183-0.12C0.096,9.935,0,9.839,0,9.659V0.42
		c0-0.168,0.096-0.276,0.252-0.3C0.6,0.06,1.523,0,2.435,0c2.219,0,3.634,1.14,3.634,3.73v2.619
		C6.069,8.916,4.653,10.079,2.435,10.079z M4.977,3.73c0-2.171-1.103-2.794-2.542-2.794c-0.563,0-0.936,0.012-1.331,0.036V9.12
		c0.384,0.024,0.768,0.024,1.331,0.024c1.439,0,2.542-0.636,2.542-2.794V3.73z"/>
	<path class="st0" d="M8.688,9.995h-0.66c-0.12,0-0.216-0.108-0.216-0.24V0.312c0-0.12,0.083-0.228,0.216-0.228h0.66
		c0.12,0,0.216,0.096,0.216,0.228v9.443C8.903,9.875,8.819,9.995,8.688,9.995z"/>
	<path class="st0" d="M16.149,9.899c-0.587,0.096-1.259,0.18-2.387,0.18c-1.499,0-3.106-0.983-3.106-3.73V3.742
		C10.656,0.828,12.335,0,13.87,0c1.116,0,1.823,0.096,2.279,0.168c0.108,0.012,0.204,0.06,0.204,0.18v0.6
		c0,0.084-0.048,0.12-0.156,0.12c-0.012,0-0.036,0-0.048,0c-0.708-0.06-1.259-0.084-2.279-0.084c-1.115,0-2.123,0.6-2.123,2.759
		v2.607c0,1.979,0.899,2.758,2.015,2.758c0.732,0,1.224-0.048,1.511-0.072v-3.43c0-0.132,0.084-0.24,0.216-0.24h0.648
		c0.12,0,0.228,0.108,0.228,0.24v4.03C16.365,9.767,16.281,9.875,16.149,9.899z"/>
	<path class="st0" d="M19.235,9.995h-0.66c-0.12,0-0.216-0.108-0.216-0.24V0.312c0-0.12,0.083-0.228,0.216-0.228h0.66
		c0.12,0,0.216,0.096,0.216,0.228v9.443C19.451,9.875,19.367,9.995,19.235,9.995z"/>
	<path class="st1" d="M26.217,7.833h-3.682v4.922c0,0.132-0.108,0.24-0.24,0.24h-0.612c-0.132,0-0.24-0.108-0.24-0.24V5.231
		C21.444,3.636,22.319,3,23.999,3c0.708,0,1.835,0.024,2.338,0.072c0.072,0.012,0.12,0.096,0.12,0.168v0.6
		c0,0.084-0.048,0.144-0.132,0.144H24.01c-1.271,0-1.475,0.336-1.475,1.248v1.667h3.682c0.132,0,0.24,0.108,0.24,0.24v0.456
		C26.457,7.726,26.349,7.833,26.217,7.833z"/>
	<path class="st1" d="M34.016,12.995h-0.839c-0.144,0-0.168,0-0.264-0.156l-2.147-4.574c-0.036,0-0.072,0-0.108,0
		c-0.072,0-0.132,0-0.204,0c-0.396,0-1.019-0.024-1.319-0.036v4.526c0,0.12-0.084,0.24-0.216,0.24h-0.647
		c-0.12,0-0.216-0.108-0.216-0.24V3.36c0-0.168,0.072-0.24,0.288-0.264C28.859,3.036,29.759,3,30.454,3
		c1.895,0,3.358,0.636,3.358,2.579v0.084c0,1.343-0.792,2.135-1.883,2.423l2.207,4.682c0.024,0.036,0.036,0.072,0.036,0.108
		C34.172,12.947,34.125,12.995,34.016,12.995z M32.733,5.579c0-1.199-0.779-1.595-2.279-1.595c-0.372,0-1.031,0-1.319,0.036v3.286
		c0.251,0,1.043,0.024,1.319,0.024c1.476,0,2.279-0.372,2.279-1.667V5.579z"/>
	<path class="st1" d="M41.192,12.995h-0.66c-0.12,0-0.216-0.108-0.216-0.24v-4.55h-3.67v4.55c0,0.12-0.084,0.24-0.216,0.24h-0.66
		c-0.12,0-0.216-0.12-0.216-0.24V5.483C35.556,3.648,36.407,3,38.134,3h0.695c1.715,0,2.579,0.648,2.579,2.483v7.272
		C41.408,12.875,41.312,12.995,41.192,12.995z M40.317,5.483c0-1.248-0.396-1.523-1.487-1.523h-0.695
		c-1.091,0-1.487,0.276-1.487,1.523v1.763h3.67V5.483z"/>
	<path class="st1" d="M49.232,12.995h-0.672c-0.12,0-0.204-0.108-0.204-0.24V6.454c0-2.087-0.72-2.506-2.207-2.506
		c-0.516,0-1.475,0.048-1.775,0.072v8.736c0,0.12-0.084,0.24-0.216,0.24H43.5c-0.132,0-0.216-0.108-0.216-0.24V3.552
		c0-0.3,0.096-0.384,0.336-0.42c0.635-0.096,1.943-0.144,2.554-0.144c2.159,0,3.274,0.815,3.274,3.466v6.301
		C49.448,12.875,49.364,12.995,49.232,12.995z"/>
	<path class="st1" d="M56.169,12.923c-0.504,0.096-0.972,0.156-1.991,0.156c-1.475,0-3.166-0.792-3.166-3.706V6.706
		C51.012,3.768,52.703,3,54.178,3c0.756,0,1.487,0.108,2.015,0.192c0.108,0.012,0.192,0.048,0.192,0.156v0.612
		c0,0.072-0.024,0.132-0.144,0.132c-0.012,0-0.024,0-0.036,0c-0.432-0.036-1.319-0.108-2.015-0.108
		c-1.175,0-2.087,0.684-2.087,2.723v2.667c0,2.015,0.912,2.723,2.087,2.723c0.684,0,1.547-0.06,1.979-0.096c0.012,0,0.036,0,0.048,0
		c0.132,0,0.192,0.06,0.192,0.192v0.492C56.409,12.827,56.301,12.899,56.169,12.923z"/>
	<path class="st1" d="M62.661,13.019c-0.456,0.048-1.631,0.06-2.338,0.06c-1.679,0-2.555-0.636-2.555-2.231V5.231
		C57.768,3.636,58.643,3,60.322,3c0.708,0,1.835,0.024,2.338,0.072c0.072,0.012,0.12,0.096,0.12,0.168v0.6
		c0,0.084-0.048,0.144-0.132,0.144h-2.315c-1.271,0-1.475,0.336-1.475,1.248v2.667h3.682c0.132,0,0.24,0.108,0.24,0.24v0.456
		c0,0.132-0.108,0.24-0.24,0.24h-3.682v2.015c0,0.912,0.204,1.248,1.475,1.248h2.315c0.084,0,0.132,0.06,0.132,0.144v0.611
		C62.781,12.923,62.733,13.007,62.661,13.019z"/>
	<g>
		<path class="st0" d="M62.298,1.084H21.932c-0.27,0-0.488-0.224-0.488-0.5s0.218-0.5,0.488-0.5h40.366
			c0.27,0,0.488,0.224,0.488,0.5S62.568,1.084,62.298,1.084z"/>
	</g>
	<g>
		<path class="st1" d="M18.976,12.995h-18.5c-0.263,0-0.476-0.224-0.476-0.5s0.213-0.5,0.476-0.5h18.5
			c0.263,0,0.476,0.224,0.476,0.5S19.238,12.995,18.976,12.995z"/>
	</g>
</g>
</svg>